HIERARCHY
ROOT root
{
	OFFSET	0	13.1	24.9
	CHANNELS 6  Xposition Yposition Zposition Xrotation Yrotation Zrotation
	JOINT spine_1
	{
		OFFSET	0	9.99999	0
		CHANNELS 3  Xrotation Yrotation Zrotation
		JOINT spine_2
		{
			OFFSET	0	112	-10
			CHANNELS 3  Xrotation Yrotation Zrotation
			JOINT spine_3
			{
				OFFSET	0	206.5	19.3
				CHANNELS 3  Xrotation Yrotation Zrotation
				JOINT spine_4
				{
					OFFSET	0	110.4	14.6
					CHANNELS 3  Xrotation Yrotation Zrotation
					JOINT neck_1
					{
						OFFSET	0	71.8	-50.3
						CHANNELS 3  Xrotation Yrotation Zrotation
						JOINT neck_2
						{
							OFFSET	0	86.2	-25.8
							CHANNELS 3  Xrotation Yrotation Zrotation
							JOINT head_ee
							{
								OFFSET	0	179.8	-8.7
								CHANNELS 3  Xrotation Yrotation Zrotation
								End Site
								{
									OFFSET	1	0	0
								}
							}
						}
					}
					JOINT left_clavicle
					{
						OFFSET	-43.2	22.4	-70.8
						CHANNELS 3  Xrotation Yrotation Zrotation
						JOINT left_shoulder
						{
							OFFSET	-93.9	-5.79999	48.7
							CHANNELS 3  Xrotation Yrotation Zrotation
							JOINT left_elbow
							{
								OFFSET	-291.4	-30.8	15.2
								CHANNELS 3  Xrotation Yrotation Zrotation
								JOINT left_lowarm_twist
								{
									OFFSET	-110.7	-3.89999	13.6
									CHANNELS 3  Xrotation Yrotation Zrotation
									JOINT left_hand
									{
										OFFSET	-110.7	-3.89999	13.6
										CHANNELS 3  Xrotation Yrotation Zrotation
										JOINT left_ee
										{
											OFFSET	-80.8	-5.10001	12.1
											CHANNELS 3  Xrotation Yrotation Zrotation
											End Site
											{
												OFFSET	1	0	0
											}
										}
									}
								}
							}
						}
					}
					JOINT right_clavicle
					{
						OFFSET	43.2	22.4	-70.8
						CHANNELS 3  Xrotation Yrotation Zrotation
						JOINT right_shoulder
						{
							OFFSET	93.9	-5.79999	48.7
							CHANNELS 3  Xrotation Yrotation Zrotation
							JOINT right_elbow
							{
								OFFSET	291.4	-30.8	15.2
								CHANNELS 3  Xrotation Yrotation Zrotation
								JOINT right_lowarm_twist
								{
									OFFSET	110.7	-3.89999	13.6
									CHANNELS 3  Xrotation Yrotation Zrotation
									JOINT right_hand
									{
										OFFSET	110.7	-3.89999	13.6
										CHANNELS 3  Xrotation Yrotation Zrotation
										JOINT right_ee
										{
											OFFSET	80.8	-5.10001	12.1
											CHANNELS 3  Xrotation Yrotation Zrotation
											End Site
											{
												OFFSET	1	0	0
											}
										}
									}
								}
							}
						}
					}
				}
			}
		}
	}
	JOINT left_hip
	{
		OFFSET	-82.8	-127.5	0.300001
		CHANNELS 3  Xrotation Yrotation Zrotation
		JOINT left_knee
		{
			OFFSET	-28.2	-396.7	2.2
			CHANNELS 3  Xrotation Yrotation Zrotation
			JOINT left_ankle
			{
				OFFSET	-11.7	-411.3	35.4
				CHANNELS 3  Xrotation Yrotation Zrotation
				JOINT left_toes
				{
					OFFSET	0	-60	-88.6
					CHANNELS 3  Xrotation Yrotation Zrotation
					JOINT left_foot_ee
					{
						OFFSET	-22.5	-16.5	-42.2
						CHANNELS 3  Xrotation Yrotation Zrotation
						End Site
						{
							OFFSET	1	0	0
						}
					}
				}
			}
		}
	}
	JOINT right_hip
	{
		OFFSET	82.8	-127.5	0.300001
		CHANNELS 3  Xrotation Yrotation Zrotation
		JOINT right_knee
		{
			OFFSET	28.2	-396.7	2.2
			CHANNELS 3  Xrotation Yrotation Zrotation
			JOINT right_ankle
			{
				OFFSET	11.7	-411.3	35.4
				CHANNELS 3  Xrotation Yrotation Zrotation
				JOINT right_toes
				{
					OFFSET	0	-60	-88.6
					CHANNELS 3  Xrotation Yrotation Zrotation
					JOINT right_foot_ee
					{
						OFFSET	22.5	-16.5	-42.2
						CHANNELS 3  Xrotation Yrotation Zrotation
						End Site
						{
							OFFSET	1	0	0
						}
					}
				}
			}
		}
	}
}
MOTION
Frames: 7
Frame Time: 0.02
2862.34716601 692.598 -1625.4587138 17.5829229586 70.8643954108 -9.50832559994 1.16505 -0.505193 -1.21495 1.16577 -0.426865 -1.24463 1.17534 -0.182574 -1.30306 1.17318 -0.386061 -1.25788 -26.512 10.4416 -0.589237 -27.4701 20.3073 5.21847 -0.0 0.0 -0.0 -1.96064 23.236 -0.00642485 -8.89679 -18.5093 63.9272 2.5814 -51.9654 1.25823 -52.1267 -4.32301 4.78948 2.67135 -13.249 12.4321 -0.0 0.0 -0.0 6.53046 25.9082 -11.2091 -24.4725 28.8289 -67.3257 0.697417 19.0591 -0.117078 53.799 1.25401 6.50744 -1.14125 -29.2892 -5.27134 0.0 0.0 0.0 -1.45161 13.5584 -8.43729 -12.0295 0.305457 1.81746 29.9614 -3.88382 -3.9438 -31.0511 0.0 0.0 -0.0 0.0 -0.0 13.8634 17.9115 -15.2564 -49.6385 1.19083 -7.29049 19.5651 -16.1956 2.71017 34.7313 -0.0 -0.0 0.0 0.0 0.0 
2846.56468364 690.984 -1594.62898546 23.1476435413 76.8923677986 -15.9990946647 1.30164 -0.70323 -1.31284 1.30239 -0.618273 -1.35492 1.31739 -0.353189 -1.44682 1.31493 -0.577234 -1.37291 -25.8745 7.51762 -0.0605717 -26.3327 14.5001 3.92584 -0.0 0.0 -0.0 -2.15629 21.6611 -0.548234 -8.99085 -18.6698 64.3939 3.38448 -59.1718 1.92193 -50.7157 -4.15589 4.71981 2.21881 -9.89577 10.8339 -0.0 0.0 -0.0 5.96391 25.1765 -10.0458 -27.2163 28.1176 -67.3786 0.603733 16.6506 -0.0883479 54.5667 1.31479 6.58476 -0.311657 -28.917 -9.6085 0.0 0.0 0.0 -4.22268 13.0297 -6.55735 -6.73676 0.218178 1.01028 29.5059 -10.5293 -4.00327 -29.6892 0.0 0.0 -0.0 0.0 -0.0 15.6262 14.9943 -13.0423 -53.1781 1.51008 -7.73237 14.5288 -17.6825 2.06269 40.17 -0.0 -0.0 0.0 0.0 0.0 
2832.97269598 692.71 -1567.65368219 43.3235759 82.782772675 -36.3815604322 1.14038 -0.855349 -1.45915 1.14124 -0.760777 -1.51061 1.16186 -0.459618 -1.62769 1.15886 -0.710884 -1.53471 -26.4993 5.33305 0.151368 -26.7308 10.2054 2.99572 -0.0 0.0 -0.0 -1.88808 18.7451 -0.647192 -8.77758 -19.4448 64.6336 4.26639 -64.6584 2.70089 -49.1245 -3.96953 4.63633 1.5742 -4.33174 8.80171 -0.0 0.0 -0.0 5.37121 22.5604 -9.0083 -29.3669 29.4923 -67.5664 0.550111 15.2436 -0.0736142 54.5025 1.30967 6.57832 0.536864 -29.5345 -14.4804 0.0 0.0 0.0 -7.47736 14.3644 -5.37385 0.12467 -0.00515383 -0.0184375 24.4379 -18.5672 -3.60924 -30.6024 0.0 0.0 -0.0 0.0 -0.0 17.5133 10.7453 -12.333 -53.7594 1.5651 -7.80304 11.7561 -17.4708 1.68467 39.8338 -0.0 -0.0 0.0 0.0 0.0 
2811.20128813 691.775 -1529.81128319 121.868473103 84.4227544488 -116.095477468 1.08337 -0.665446 -1.62553 1.08466 -0.560676 -1.66456 1.10152 -0.231973 -1.74105 1.09764 -0.503989 -1.68259 -26.1596 2.69053 0.326204 -26.2142 5.05157 1.71708 -0.0 0.0 -0.0 -1.03745 15.3528 0.15293 -8.69091 -20.237 64.2915 6.05214 -71.5223 4.36066 -46.4686 -3.66385 4.48558 0.856005 1.4738 6.3262 -0.0 0.0 -0.0 4.37321 20.8113 -7.0084 -32.4117 29.1794 -69.1842 0.57518 15.9039 -0.0803449 54.5774 1.31564 6.58582 1.65118 -29.7095 -20.8337 0.0 0.0 0.0 -10.9104 17.1713 -2.94377 5.28244 -0.253287 -0.770565 21.3243 -29.6002 -3.60061 -30.2568 0.0 0.0 -0.0 0.0 -0.0 22.9417 4.27606 -10.3956 -50.269 1.24568 -7.37061 7.36923 -16.8095 1.06909 38.0455 -0.0 -0.0 0.0 0.0 0.0 
2792.7073187 690.327 -1516.13022398 134.429964693 83.5141796417 -129.200465861 1.33182 -0.543221 -1.32778 1.33268 -0.457637 -1.35965 1.34385 -0.195123 -1.42126 1.34127 -0.417114 -1.37262 -25.8147 3.04548 0.81749 -25.8773 5.53577 2.34241 -0.0 0.0 -0.0 -1.24038 12.0807 -0.650921 -6.79229 -19.2324 64.1571 5.78622 -70.7374 4.10903 -46.201 -3.63345 4.46961 0.917351 6.29993 8.65328 -0.0 0.0 -0.0 3.61661 16.6018 -5.76267 -32.612 32.3064 -69.5023 0.550262 15.2476 -0.0736539 53.1323 1.20206 6.43964 2.09495 -29.8127 -23.4573 0.0 0.0 0.0 -11.6152 15.6863 -3.76592 1.02403 -0.0435208 -0.151113 24.7303 -28.5083 -4.03263 -27.9431 0.0 0.0 -0.0 0.0 -0.0 23.9433 3.05862 -10.2331 -45.2838 0.836665 -6.72156 1.51671 -17.7744 0.224157 36.9691 -0.0 -0.0 0.0 0.0 0.0 
2779.84117289 687.95 -1503.68795867 139.705076281 82.9992732141 -134.862650284 1.16775 -0.360866 -1.37456 1.16876 -0.272676 -1.39474 1.17569 -0.002634 -1.42113 1.17294 -0.22702 -1.40289 -25.2988 2.66456 0.785991 -25.3442 4.81012 2.08957 -0.0 0.0 -0.0 -0.368027 9.14736 0.442774 -4.8945 -19.3562 63.5609 6.08415 -71.6127 4.39103 -45.987 -3.60919 4.45674 1.0765 11.0045 11.4827 -0.0 0.0 -0.0 3.7705 16.3314 -6.11477 -34.1651 33.9496 -69.3527 0.483488 13.4692 -0.057093 51.7615 1.09778 6.29839 2.31584 -29.3906 -24.6934 0.0 0.0 0.0 -11.9569 18.0425 -3.39508 -0.669685 0.0269952 0.099225 26.1023 -30.7418 -4.33944 -27.3716 0.0 0.0 -0.0 0.0 -0.0 25.3137 2.78872 -10.0236 -39.1939 0.416282 -5.88512 -1.51092 -18.3877 -0.225245 35.3086 -0.0 -0.0 0.0 0.0 0.0 
2761.89021762 686.445 -1501.53013627 149.43553837 82.3195738143 -144.42055105 1.50778 -0.579783 -1.39773 1.50873 -0.489676 -1.43178 1.52125 -0.217749 -1.49744 1.51841 -0.451485 -1.44428 -24.8907 2.79055 1.31794 -24.9318 4.82451 2.62703 -0.0 0.0 -0.0 -0.114361 6.96876 0.622784 -3.78318 -18.946 62.7448 5.40584 -69.4956 3.7513 -44.825 -3.4783 4.38526 0.949475 12.7365 11.2952 -0.0 0.0 -0.0 3.49834 14.1959 -5.72025 -34.8522 34.8065 -69.2309 0.461809 12.8858 -0.0521508 51.4728 1.07626 6.26833 2.76879 -29.0922 -27.4193 0.0 0.0 0.0 -12.3725 16.3308 -3.44542 -1.11531 0.0443141 0.16542 27.3675 -29.7274 -4.45206 -25.9073 0.0 0.0 -0.0 0.0 -0.0 26.598 3.27293 -11.0103 -34.8166 0.170344 -5.25919 -4.51328 -19.2797 -0.678718 33.9818 -0.0 -0.0 0.0 0.0 0.0 
